<svg width="58" height="59" viewBox="0 0 58 59" fill="none" xmlns="http://www.w3.org/2000/svg">
<g filter="url(#filter0_d_1_2563)">
<rect x="2" y="2.03247" width="50" height="50.0061" rx="5" fill="white"/>
<rect x="2.5" y="2.53247" width="49" height="49.0061" rx="4.5" stroke="#DADADA"/>
</g>
<path d="M20 27.0355C22.21 27.0355 24 25.2453 24 23.035C24 20.8248 22.21 19.0345 20 19.0345C17.79 19.0345 16 20.8248 16 23.035C16 25.2453 17.79 27.0355 20 27.0355ZM20 29.0358C17.33 29.0358 12 30.3759 12 33.0363V35.0365H28V33.0363C28 30.3759 22.67 29.0358 20 29.0358Z" fill="#2571F0"/>
<path d="M39 32.0461V25.0353H37V32.0461H34L38 36.0366L42 32.0461H39V32.0461ZM32 18.0344L28 22.0249H31V29.0358H33V22.0249H36L32 18.0344Z" fill="#2571F0"/>
<defs>
<filter id="filter0_d_1_2563" x="0" y="0.0324707" width="58" height="58.0061" filterUnits="userSpaceOnUse" color-interpolation-filters="sRGB">
<feFlood flood-opacity="0" result="BackgroundImageFix"/>
<feColorMatrix in="SourceAlpha" type="matrix" values="0 0 0 0 0 0 0 0 0 0 0 0 0 0 0 0 0 0 127 0" result="hardAlpha"/>
<feOffset dx="2" dy="2"/>
<feGaussianBlur stdDeviation="2"/>
<feColorMatrix type="matrix" values="0 0 0 0 0 0 0 0 0 0 0 0 0 0 0 0 0 0 0.25 0"/>
<feBlend mode="normal" in2="BackgroundImageFix" result="effect1_dropShadow_1_2563"/>
<feBlend mode="normal" in="SourceGraphic" in2="effect1_dropShadow_1_2563" result="shape"/>
</filter>
</defs>
</svg>
